HIERARCHY
ROOT Hips
{
	OFFSET -0.179506 -22.333345 2.821913
	CHANNELS 6 Xposition Yposition Zposition Zrotation Yrotation Xrotation 
	JOINT LeftUpLeg
	{
		OFFSET 6.951974 -9.140623 -0.681533
		CHANNELS 3 Zrotation Yrotation Xrotation
		JOINT LeftLeg
		{
			OFFSET 3.427654 -37.519855 -0.449580
			CHANNELS 3 Zrotation Yrotation Xrotation
			JOINT LeftFoot
			{
				OFFSET -1.359570 -39.796059 -4.369333
				CHANNELS 3 Zrotation Yrotation Xrotation
				JOINT LeftToe
				{
					OFFSET 2.635814 -5.579078 11.928840
					CHANNELS 3 Zrotation Yrotation Xrotation
					End Site
					{
						OFFSET 0.000000 0.000000 0.000000
					}
				}
			}
		}
	}
	JOINT RightUpLeg
	{
		OFFSET -6.767048 -9.052170 -0.431982
		CHANNELS 3 Zrotation Yrotation Xrotation
		JOINT RightLeg
		{
			OFFSET -3.829005 -38.256897 -0.885003
			CHANNELS 3 Zrotation Yrotation Xrotation
			JOINT RightFoot
			{
				OFFSET 1.577377 -39.841461 -4.231180
				CHANNELS 3 Zrotation Yrotation Xrotation
				JOINT RightToe
				{
					OFFSET -2.537174 -4.814398 12.334795
					CHANNELS 3 Zrotation Yrotation Xrotation
					End Site
					{
						OFFSET 0.000000 0.000000 0.000000
					}
				}
			}
		}
	}
	JOINT Spine
	{
		OFFSET -0.253288 10.896323 -2.669631
		CHANNELS 3 Zrotation Yrotation Xrotation
		JOINT Spine1
		{
			OFFSET 0.548704 13.518043 0.109247
			CHANNELS 3 Zrotation Yrotation Xrotation
			JOINT Spine2
			{
				OFFSET 0.145701 5.292222 2.542457
				CHANNELS 3 Zrotation Yrotation Xrotation
				JOINT Neck
				{
					OFFSET -0.277840 21.387037 -4.285703
					CHANNELS 3 Zrotation Yrotation Xrotation
					JOINT Head
					{
						OFFSET 0.515184 6.496960 5.134897
						CHANNELS 3 Zrotation Yrotation Xrotation
						End Site
						{
							OFFSET 0.000000 0.000000 0.000000
						}
					}
				}
				JOINT LeftShoulder
				{
					OFFSET 7.884473 12.174932 -3.408961
					CHANNELS 3 Zrotation Yrotation Xrotation
					JOINT LeftArm
					{
						OFFSET 9.097692 3.046888 -0.886815
						CHANNELS 3 Zrotation Yrotation Xrotation
						JOINT LeftForeArm
						{
							OFFSET 25.961220 -1.277207 -2.745643
							CHANNELS 3 Zrotation Yrotation Xrotation
							JOINT LeftHand
							{
								OFFSET 24.923361 0.898606 -0.117091
								CHANNELS 3 Zrotation Yrotation Xrotation
								End Site
								{
									OFFSET 0.000000 0.000000 0.000000
								}
							}
						}
					}
				}
				JOINT RightShoulder
				{
					OFFSET -8.175920 11.883285 -3.861528
					CHANNELS 3 Zrotation Yrotation Xrotation
					JOINT RightArm
					{
						OFFSET -9.601238 3.255117 -0.914307
						CHANNELS 3 Zrotation Yrotation Xrotation
						JOINT RightForeArm
						{
							OFFSET -25.374195 -1.332924 -2.140099
							CHANNELS 3 Zrotation Yrotation Xrotation
							JOINT RightHand
							{
								OFFSET -25.529810 0.777228 -0.555919
								CHANNELS 3 Zrotation Yrotation Xrotation
								End Site
								{
									OFFSET 0.000000 0.000000 0.000000
								}
							}
						}
					}
				}
			}
		}
	}
}
MOTION
Frames: 13
Frame Time: 0.033333
-19.987984 47.303265 94.057205 -159.948725 1.488483 85.086925 -8.958182 0.328914 -8.458150 2.254817 17.674943 8.394314 2.945961 11.233285 -3.072191 nan nan nan -4.765404 -7.060201 4.451573 3.444985 -2.694735 40.120513 20.391295 8.807997 12.619403 nan nan nan 1.476773 6.394031 2.625078 2.120591 1.059394 3.553733 0.573051 4.027091 -0.967235 -5.048233 -5.191587 2.279082 -2.996904 -7.992906 -3.343941 -14.299485 10.583824 0.465147 -72.523618 -3.515915 5.348245 10.951594 -28.917897 -9.368366 -7.265802 -17.732947 -25.933573 16.048987 -3.649066 0.788306 65.859116 8.211289 10.016304 -10.025786 27.855719 -7.313934 15.133654 11.942658 -12.488689 
-20.154066 47.648220 94.062546 -159.099418 1.340628 84.925068 -9.263130 0.257825 -7.929505 2.073477 17.030044 8.319456 2.984186 11.191400 -3.255914 nan nan nan -5.031322 -6.669738 3.569510 3.714130 -2.537201 41.740988 20.252388 9.163551 11.986233 nan nan nan 1.312669 6.096847 2.727821 2.170473 1.077120 3.493789 0.575970 3.800457 -0.799517 -4.989772 -5.258147 2.499761 -3.255135 -8.340990 -3.426178 -14.382044 10.443477 0.443813 -72.420682 -4.013548 5.717176 11.145869 -29.423666 -9.497947 -6.524335 -17.781735 -25.461527 16.179948 -3.838779 0.858079 65.524923 8.125047 9.946524 -10.056637 28.140618 -7.470865 13.491980 12.709737 -12.128091 
-20.302017 47.985607 94.062798 -158.189665 1.305759 84.692969 -9.463201 0.075130 -7.375250 1.941375 16.251262 8.319051 3.021359 11.376526 -3.413947 nan nan nan -5.093882 -6.260603 2.844018 3.943173 -2.255554 43.159475 19.969716 9.392308 10.948572 nan nan nan 1.215944 5.777175 2.993850 2.204416 1.012555 3.382562 0.643682 3.592710 -0.647428 -5.071027 -5.304295 2.631805 -3.344326 -8.382668 -3.510531 -14.525162 10.184329 0.288134 -72.275391 -4.326538 5.879880 11.470569 -29.991236 -9.658686 -6.645453 -17.593528 -24.954203 16.143649 -3.981056 0.726305 65.287623 7.805199 9.760690 -9.968752 28.325477 -7.272782 13.549442 12.204835 -11.877050 
-20.423258 48.319363 94.059235 -157.272130 1.360653 84.556557 -9.545896 -0.239129 -7.028962 1.934929 15.638866 8.544382 3.026901 11.545410 -3.591281 nan nan nan -4.915961 -5.734846 2.006820 3.932447 -2.126016 44.484683 19.364956 9.436931 9.731127 nan nan nan 1.166167 5.468741 3.192858 2.274718 0.933974 3.212712 0.679708 3.423111 -0.452739 -5.161608 -5.224131 2.640983 -3.367293 -8.450127 -3.600519 -14.569331 9.872729 0.163600 -72.137430 -4.690168 6.113282 11.705778 -30.396373 -9.850119 -6.685333 -17.663070 -24.765285 16.123324 -4.091055 0.550235 65.109571 7.458038 9.667802 -10.037053 28.441641 -7.195019 13.900498 11.834435 -11.984094 
-20.568874 48.641708 94.067497 -156.315984 1.394411 84.364204 -9.670871 -0.589182 -6.558902 1.931281 15.100069 8.652362 3.004627 11.638963 -3.752885 nan nan nan -4.817297 -5.112861 1.281997 3.807563 -2.337994 45.595209 18.586347 9.448122 8.380839 nan nan nan 1.173512 5.182696 3.364596 2.305728 0.858949 3.150904 0.611210 3.277954 -0.242904 -5.049332 -4.927274 2.534011 -3.421513 -8.782849 -3.608233 -14.443054 9.551303 0.115917 -72.166164 -5.218172 6.496319 12.036548 -30.610432 -10.175007 -6.617931 -18.153793 -24.521253 16.147331 -4.239121 0.401016 65.012645 7.214514 9.637802 -10.205328 28.447957 -7.227588 13.845180 11.988448 -12.424980 
-20.747396 48.956741 94.093575 -155.360872 1.403988 84.054946 -9.891261 -0.903223 -5.876791 1.966532 14.435466 8.600363 2.883847 11.883771 -3.805969 nan nan nan -4.863546 -4.557082 0.755407 3.559044 -2.657683 46.462936 17.921793 9.535336 7.236754 nan nan nan 1.349950 4.898145 3.619250 2.220647 0.790880 3.184531 0.488233 3.125241 -0.078595 -5.034918 -4.779622 2.634163 -3.427578 -9.049427 -3.730598 -14.466298 9.232380 -0.034349 -72.108467 -5.647192 6.778767 12.447136 -30.928693 -10.734146 -6.647914 -18.374564 -24.137595 16.144149 -4.366843 0.208339 64.984755 6.946947 9.524054 -10.399154 28.386109 -7.233298 13.603345 12.010217 -12.400298 
-20.904514 49.267338 94.127029 -154.319886 1.475012 83.754963 -9.994155 -1.191592 -5.242075 1.944260 13.697194 8.661566 2.681337 12.025070 -3.998618 nan nan nan -4.792322 -4.158237 0.268343 3.230895 -2.807875 47.162461 17.338306 9.423192 6.267764 nan nan nan 1.511171 4.594089 3.911382 2.181093 0.665536 3.210723 0.448500 2.934924 -0.018078 -5.161265 -4.867536 2.870560 -3.390942 -9.121002 -3.861841 -14.502056 8.914086 -0.110359 -72.010327 -5.954831 6.998037 12.601943 -31.496492 -11.077655 -6.105111 -18.503469 -24.393131 16.018608 -4.331913 0.189288 64.998039 6.612679 9.407576 -10.658625 28.408895 -7.404506 13.126256 12.054593 -12.517629 
-21.051943 49.559288 94.153313 -153.276645 1.599477 83.590460 -10.018651 -1.495989 -4.819158 1.873972 12.915137 8.800816 2.583072 12.110137 -4.191937 nan nan nan -4.595964 -3.763531 -0.354724 2.882561 -2.878211 47.766611 16.726365 8.979940 5.284576 nan nan nan 1.621683 4.282898 4.195551 2.197055 0.599774 3.032269 0.488633 2.755634 0.034004 -5.393972 -5.198387 3.205023 -3.327993 -9.112511 -3.978825 -14.489594 8.612476 0.014182 -72.043399 -6.302914 7.291653 12.685305 -32.145963 -11.637045 -4.992059 -18.492868 -25.272752 15.777139 -4.306631 0.225385 64.898192 6.159488 9.412459 -10.629740 28.584064 -7.544549 12.367777 11.979793 -12.994272 
-21.181652 49.844074 94.188568 -152.245429 1.738007 83.318835 -10.024579 -1.501791 -4.293387 1.827524 12.145471 8.940857 2.488141 11.996651 -4.462581 nan nan nan -4.386714 -3.336924 -0.857791 2.432692 -2.975934 48.300480 15.801750 8.549054 4.586945 nan nan nan 1.796324 3.922916 4.655374 2.114095 0.582497 2.841795 0.526338 2.568720 0.059696 -5.622237 -5.467327 3.499767 -3.281582 -9.155891 -4.067078 -14.567262 8.295172 -0.019081 -71.919079 -6.642932 7.081714 13.320794 -32.539167 -11.560071 -7.187572 -18.494845 -24.830144 15.520540 -4.252039 0.236141 65.018079 5.748884 9.097442 -10.750987 28.636594 -7.537140 12.343300 11.760125 -13.380529 
-21.328310 50.104607 94.224083 -151.130660 1.867524 83.048810 -10.117611 -1.500407 -3.687746 1.846457 11.212002 8.896541 2.403196 11.895616 -4.545816 nan nan nan -4.264293 -2.963095 -1.320499 1.960659 -3.081201 48.683446 14.908755 8.112831 4.068219 nan nan nan 1.964852 3.543775 5.103639 2.053037 0.521063 2.627139 0.534185 2.365113 0.156930 -5.772883 -5.603197 3.584268 -3.343081 -9.224405 -3.943635 -14.547695 8.110247 -0.127085 -71.973841 -6.925487 7.180948 13.689378 -32.908090 -11.345653 -8.007667 -18.687890 -24.390266 15.292253 -4.266988 0.083795 65.143314 5.388312 8.970380 -10.882954 28.418912 -7.583828 12.488555 11.685115 -13.570193 
-21.503059 50.366837 94.260468 -150.014051 2.000419 82.772625 -10.271631 -1.554411 -2.982730 1.949130 10.167211 8.728611 2.291527 11.825979 -4.650032 nan nan nan -4.168140 -2.642310 -1.685349 1.263563 -3.322235 48.823413 14.694938 7.541917 3.424241 nan nan nan 2.170775 3.126196 5.598102 1.980353 0.417320 2.347861 0.519256 2.209419 0.207610 -5.944884 -5.846930 3.680464 -3.474463 -9.300460 -3.619856 -14.481042 8.048028 -0.188002 -72.014719 -7.165275 7.439886 13.799031 -33.307208 -11.189419 -7.732594 -18.897761 -24.279086 15.001092 -4.272490 -0.021555 65.246798 4.996737 8.951789 -10.954804 28.208157 -7.729651 12.405566 11.661953 -13.618607 
-21.682076 50.631275 94.290779 -148.883866 2.107463 82.603477 -10.432371 -1.702253 -2.392303 2.076877 9.313933 8.574895 2.196686 11.756173 -4.749526 nan nan nan -4.075445 -2.331236 -2.177056 0.598601 -3.506668 48.895407 14.362142 6.833771 2.732612 nan nan nan 2.392091 2.756515 5.946019 1.870177 0.343447 1.978823 0.422552 2.052086 0.335506 -6.129316 -6.129203 3.832853 -3.438473 -9.431452 -3.218178 -14.355311 7.840776 -0.079068 -72.000819 -7.535036 7.544647 14.122146 -33.696298 -11.178346 -8.105302 -19.028067 -24.268164 14.780698 -4.215350 -0.078162 65.358361 4.581005 8.820385 -11.046519 27.872478 -7.701768 12.847522 11.586892 -13.623681 
-21.869520 50.875961 94.343674 -147.674987 2.229540 82.388539 -10.552251 -1.725015 -1.805634 2.168141 8.387104 8.553949 2.148578 11.545508 -4.694052 nan nan nan -4.001101 -2.177593 -2.584522 0.053092 -3.534884 48.898240 13.130959 6.192438 1.823245 nan nan nan 2.603766 2.395851 6.263708 1.772535 0.235408 1.745451 0.383936 1.892100 0.437037 -6.350765 -6.382058 4.088665 -3.288683 -9.512994 -2.974665 -14.314927 7.542003 0.053273 -71.992328 -7.918449 7.512551 14.500931 -34.115279 -11.202643 -8.650787 -19.204417 -24.184329 14.600201 -4.150267 0.051658 65.369791 4.260174 8.430358 -10.997765 27.734697 -7.604570 12.977038 11.715531 -13.856760 
